<?xml version="1.0" standalone="no"?>
<!DOCTYPE svg PUBLIC "-//W3C//DTD SVG 20010904//EN"
 "http://www.w3.org/TR/2001/REC-SVG-20010904/DTD/svg10.dtd">
<svg version="1.0" xmlns="http://www.w3.org/2000/svg"
 width="320.000000pt" height="213.000000pt" viewBox="0 0 320.000000 213.000000"
 preserveAspectRatio="xMidYMid meet">

<g transform="translate(0.000000,213.000000) scale(0.100000,-0.100000)"
fill="#000000" stroke="none">
<path d="M0 1065 l1 -1065 1599 0 1600 0 0 846 0 846 -37 -6 c-21 -3 -81 -11
-133 -16 -160 -17 -153 -13 -145 -73 4 -29 8 -52 9 -52 57 -17 61 -21 64 -60
2 -27 -1 -43 -12 -51 -14 -9 -12 -12 9 -22 23 -11 30 -31 26 -72 -6 -50 -112
-69 -151 -28 -24 26 -21 42 7 46 14 2 23 -4 28 -18 5 -16 13 -20 33 -18 22 2
28 9 30 36 3 26 -1 34 -20 41 -13 5 -26 7 -30 4 -5 -2 -8 3 -8 11 0 8 9 18 21
21 31 10 23 66 -11 76 -14 4 -61 28 -105 53 -44 25 -84 45 -90 43 -5 -2 -43
-50 -82 -108 -40 -57 -98 -140 -128 -184 -203 -290 -228 -330 -193 -309 7 5 9
1 6 -12 -4 -15 1 -19 27 -21 32 -3 33 -1 38 43 5 50 18 64 59 64 42 0 58 -10
79 -53 12 -22 24 -36 27 -31 4 5 23 9 42 9 30 0 35 3 38 26 2 17 -3 29 -13 33
-22 8 -35 -1 -35 -25 0 -15 -6 -20 -22 -17 -17 2 -22 9 -20 23 12 71 152 47
152 -26 0 -10 6 -19 13 -19 9 0 12 10 9 30 -6 43 12 60 64 60 31 0 50 -6 64
-20 22 -22 24 -33 10 -60 -8 -14 -5 -20 18 -28 63 -24 66 -24 92 21 14 23 27
45 28 50 2 4 -21 7 -51 7 -38 0 -57 4 -60 14 -5 12 10 15 75 18 95 4 101 -3
69 -68 -30 -64 -27 -81 23 -126 25 -21 48 -47 51 -58 4 -13 19 -21 43 -25 70
-12 82 -24 25 -24 -58 -1 -57 0 -43 -52 7 -24 7 -52 -1 -85 -5 -27 -13 -61
-16 -76 -3 -16 -9 -28 -14 -28 -5 0 -9 -6 -9 -13 0 -7 -16 -21 -35 -31 -45
-24 -44 -34 3 -41 68 -11 68 -13 -5 -14 -39 0 -84 -6 -100 -12 -31 -12 -316
-15 -334 -3 -8 5 -9 -13 -4 -65 6 -60 5 -71 -8 -71 -10 0 -18 14 -22 38 -5 29
-13 41 -33 49 -27 11 -27 11 -4 18 24 8 30 24 10 26 -7 1 -39 2 -71 3 -47 1
-56 -2 -51 -14 4 -8 8 -40 10 -70 l2 -55 -15 35 c-30 69 -38 83 -51 88 -18 6
-16 -69 4 -96 8 -12 11 -22 6 -22 -21 0 -62 73 -62 112 0 14 -5 18 -16 14 -9
-3 -25 -6 -35 -6 -16 0 -19 -5 -14 -22 6 -22 6 -22 -9 -4 -9 11 -16 22 -16 26
0 3 -18 4 -40 2 -30 -3 -45 -11 -61 -33 l-21 -29 -46 33 c-26 19 -62 37 -79
40 -29 6 -33 4 -33 -15 0 -21 0 -21 -15 -2 -12 16 -16 17 -24 4 -7 -9 -6 -17
1 -21 7 -5 7 -12 -1 -25 -10 -18 -10 -18 -11 3 0 36 -16 35 -50 -5 -17 -20
-25 -27 -18 -15 7 12 8 26 4 30 -5 4 -11 2 -13 -4 -6 -16 -37 -17 -64 -3 -10
6 -29 30 -40 53 -21 40 -21 41 -2 24 20 -17 21 -17 38 20 22 46 22 73 -2 86
-16 10 -16 11 2 17 18 6 18 7 -3 28 -15 15 -23 39 -28 85 -6 60 -5 65 20 90
32 32 33 44 4 50 -20 3 -18 5 10 12 32 7 33 10 28 44 -5 32 -4 33 6 14 6 -13
15 -23 19 -23 12 0 53 60 74 108 10 23 21 42 24 42 3 -1 22 -14 41 -30 42 -37
56 -37 99 0 19 16 38 27 42 25 4 -3 26 24 49 60 45 69 66 89 31 29 -12 -19
-19 -40 -16 -45 10 -14 42 -10 49 6 7 19 35 20 42 1 4 -10 13 -12 34 -6 16 4
31 6 34 3 3 -3 9 2 12 12 4 9 18 29 30 43 39 41 32 45 -71 38 -52 -4 -95 -5
-95 -1 0 3 36 64 80 134 44 71 80 132 80 135 0 3 21 38 48 78 26 40 52 82 59
93 7 11 24 39 38 63 31 51 33 48 -77 107 -38 20 -68 40 -68 45 0 5 24 22 53
37 l52 28 -37 3 c-46 4 -49 21 -8 44 17 9 30 24 30 31 0 8 9 17 20 20 17 4 21
-1 26 -34 4 -22 10 -42 14 -44 14 -9 60 14 66 32 13 41 28 61 51 72 33 15 75
14 100 -4 20 -14 24 -13 51 10 57 48 128 59 162 25 23 -23 26 -68 6 -95 -12
-17 -11 -21 10 -38 19 -14 24 -28 24 -63 0 -40 -3 -47 -34 -65 -32 -18 -34
-23 -29 -57 3 -20 8 -39 10 -41 4 -5 294 29 305 35 4 3 7 97 7 209 l0 205
-323 0 -324 0 -222 -45 c-123 -25 -224 -44 -226 -42 -2 2 60 18 139 36 78 18
156 37 172 41 17 5 -137 9 -353 9 -345 1 -391 -1 -460 -18 -146 -36 -135 -35
-128 -6 l6 25 -79 0 -79 0 14 -47 c21 -69 18 -102 -8 -112 -36 -14 -60 9 -90
85 l-26 69 -51 2 -51 3 4 -32 c4 -37 17 -46 36 -23 20 25 38 17 60 -25 39 -77
13 -127 -52 -98 -20 9 -58 107 -58 148 0 25 -4 30 -25 30 -14 0 -25 -5 -25
-11 0 -5 -4 -7 -10 -4 -5 3 -10 2 -10 -3 0 -5 -9 -12 -19 -15 -22 -6 -19 -40
7 -69 13 -16 13 -18 0 -18 -20 0 -41 69 -27 86 6 7 8 18 4 24 -4 7 -168 10
-501 10 l-494 0 0 -1065z m990 1051 c0 -3 -4 -8 -10 -11 -5 -3 -10 -1 -10 4 0
6 5 11 10 11 6 0 10 -2 10 -4z m-97 -51 c41 -11 94 -70 117 -132 24 -66 24
-63 1 -63 -11 0 -27 -10 -35 -22 -17 -24 -13 -39 6 -20 18 18 32 14 17 -4 -10
-13 -10 -17 1 -24 9 -5 20 -5 27 2 10 8 13 4 13 -20 0 -33 -18 -82 -30 -82 -4
0 -10 -9 -13 -20 -4 -16 -14 -20 -51 -20 -40 0 -46 -3 -52 -24 -3 -14 -3 -30
1 -36 4 -7 -1 -9 -18 -5 -38 10 -41 -11 -6 -36 28 -20 37 -21 71 -12 31 8 38
8 34 -2 -2 -7 -10 -31 -17 -54 -7 -23 -16 -41 -20 -41 -4 0 -14 -3 -22 -6 -10
-4 -29 14 -59 53 -23 32 -46 60 -50 63 -4 3 -12 36 -18 72 -5 37 -14 78 -19
90 -4 13 -16 62 -25 110 -22 108 -11 180 32 221 26 25 72 39 82 25 3 -3 18
-10 33 -13z m-228 -16 c4 -5 18 -14 32 -20 l24 -9 -20 -29 c-12 -16 -21 -42
-21 -58 0 -60 -22 -107 -69 -150 -35 -33 -54 -43 -81 -43 -19 0 -46 -9 -60
-20 -14 -11 -28 -20 -32 -20 -10 0 -9 91 1 153 10 58 52 119 117 169 48 37 96
49 109 27z m410 -6 c21 -21 35 -57 35 -92 0 -23 -5 -30 -25 -33 -14 -3 -29 0
-34 6 -7 8 -2 12 17 11 23 0 27 4 27 28 1 15 -5 33 -12 39 -7 5 -10 14 -7 19
5 9 -17 13 -45 9 -13 -1 -13 1 -2 14 17 20 25 20 46 -1z m998 -10 c-7 -2 -19
-2 -25 0 -7 3 -2 5 12 5 14 0 19 -2 13 -5z m154 -141 c20 -31 41 -133 34 -172
-7 -45 -84 -66 -115 -31 -24 26 -46 104 -46 162 0 38 5 51 23 64 35 25 78 15
104 -23z m-507 -137 c35 -35 62 -66 59 -68 -6 -6 -170 -29 -175 -25 -6 6 37
158 45 158 4 0 35 -29 71 -65z m-314 9 c18 -14 18 -14 -6 -3 -31 14 -36 19
-24 19 6 0 19 -7 30 -16z m-53 -14 c-3 -12 -8 -19 -11 -16 -5 6 5 36 12 36 2
0 2 -9 -1 -20z m997 -31 c0 -11 -7 -22 -15 -26 -19 -6 -20 -5 -29 24 -5 16 -2
22 11 25 25 6 33 0 33 -23z m-1003 -21 c-3 -8 -6 -5 -6 6 -1 11 2 17 5 13 3
-3 4 -12 1 -19z m45 -20 c-7 -7 -12 -20 -12 -30 0 -10 -5 -18 -11 -18 -5 0 -9
3 -7 8 22 45 32 61 37 57 2 -3 -1 -11 -7 -17z m-404 -82 c-1 -2 -15 -6 -30
-10 -34 -8 -37 7 -6 28 20 14 23 14 31 0 5 -8 7 -17 5 -18z m355 9 c-3 -9 -8
-14 -10 -11 -3 3 -2 9 2 15 9 16 15 13 8 -4z m1409 -107 c21 -21 22 -23 4 -26
-10 -2 -29 2 -42 8 -35 19 -54 6 -54 -37 0 -29 3 -34 12 -25 21 21 85 15 102
-10 24 -34 21 -94 -6 -112 -25 -18 -80 -21 -108 -6 -41 22 -61 164 -28 205 26
34 88 35 120 3z m100 -7 c-12 -33 -52 -43 -52 -13 0 24 6 30 35 30 17 0 22 -5
17 -17z m-726 -58 c3 -16 12 -53 20 -84 18 -73 18 -99 -1 -99 -14 0 -26 33
-41 109 -4 18 -13 35 -20 37 -49 15 -50 16 -26 25 12 5 25 15 28 24 10 24 33
17 40 -12z m464 -42 c15 -29 12 -87 -6 -105 -17 -18 -89 -22 -99 -6 -3 6 -1
10 5 10 6 0 8 6 4 13 -6 10 -4 10 7 0 34 -32 62 2 50 60 -5 20 -6 38 -3 41 11
12 32 5 42 -13z m-1056 1 c2 -4 -4 -8 -14 -8 -10 0 -16 4 -14 8 3 4 9 8 14 8
5 0 11 -4 14 -8z m326 -2 c0 -20 -31 -71 -40 -65 -5 3 -11 1 -14 -4 -4 -5 -1
-13 5 -17 8 -5 9 -3 4 6 -5 9 -4 11 4 6 6 -4 9 -12 5 -17 -3 -5 -10 -7 -15 -4
-5 4 -9 1 -9 -4 0 -6 5 -11 12 -11 6 0 8 -3 5 -6 -9 -9 -38 16 -31 27 3 5 1 9
-4 9 -6 0 -15 14 -21 30 -12 35 -22 41 -13 8 5 -22 5 -22 -28 2 l-34 24 34 9
c19 5 55 7 81 5 26 -2 45 0 42 5 -2 4 1 7 6 7 6 0 11 -5 11 -10z m-1320 -4 c0
-2 -8 -10 -17 -17 -16 -13 -17 -12 -4 4 13 16 21 21 21 13z m904 -14 c3 -5 -1
-9 -9 -9 -8 0 -15 4 -15 9 0 4 4 8 9 8 6 0 12 -4 15 -8z m54 -52 c0 -9 -3 -7
-8 5 -5 11 -8 29 -8 40 0 16 2 15 8 -5 4 -14 8 -32 8 -40z m-937 3 c13 -16 12
-17 -3 -4 -10 7 -18 15 -18 17 0 8 8 3 21 -13z m776 -15 c-3 -8 -6 -5 -6 6 -1
11 2 17 5 13 3 -3 4 -12 1 -19z m233 18 c0 -3 -4 -8 -10 -11 -5 -3 -10 -1 -10
4 0 6 5 11 10 11 6 0 10 -2 10 -4z m-925 -47 c33 -10 47 -20 56 -41 14 -34 31
-27 68 27 14 21 36 40 47 41 26 4 34 -25 34 -120 l0 -61 -23 27 c-12 14 -32
29 -44 33 -25 7 -30 -4 -11 -23 18 -18 -3 -14 -24 4 -14 14 -20 14 -33 4 -8
-7 -21 -10 -28 -7 -17 6 -97 124 -96 141 0 8 2 8 5 -1 3 -6 25 -17 49 -24z
m950 12 c3 -5 0 -13 -6 -17 -7 -4 -9 -3 -5 4 3 5 0 13 -6 15 -9 4 -10 6 -1 6
6 1 14 -3 18 -8z m-57 -56 c-3 -3 -9 2 -12 12 -6 14 -5 15 5 6 7 -7 10 -15 7
-18z m45 -12 c-7 -2 -19 -2 -25 0 -7 3 -2 5 12 5 14 0 19 -2 13 -5z m1585 -10
c-16 -2 -40 -2 -55 0 -16 2 -3 4 27 4 30 0 43 -2 28 -4z m-145 -10 c-23 -2
-64 -2 -90 0 -26 2 -7 3 42 3 50 0 71 -1 48 -3z m-2270 -61 c-2 -6 3 -9 11 -6
8 3 17 0 22 -7 5 -8 3 -10 -7 -4 -12 8 -12 6 0 -8 23 -29 -14 -21 -44 8 -31
31 -31 33 -2 31 12 -1 21 -7 20 -14z m97 -101 c5 -30 10 -60 10 -67 0 -19 -19
-17 -27 2 -3 9 -16 27 -29 41 -24 25 -27 70 -5 66 6 -2 11 7 11 19 0 41 29 -3
40 -61z m860 -113 c0 -20 -38 -34 -52 -20 -8 8 -4 9 11 5 21 -5 25 1 22 42 -2
17 0 17 8 5 6 -8 11 -23 11 -32z m-1610 -125 c0 -21 -3 -24 -9 -14 -5 8 -7 20
-4 28 8 21 13 15 13 -14z m1549 -123 c0 -72 -15 -36 -17 40 -1 40 1 49 8 35 5
-11 9 -45 9 -75z m-1115 -52 c-3 -5 -12 -1 -20 7 -9 8 -21 15 -29 15 -18 0
-45 44 -45 72 1 20 8 15 50 -32 27 -30 46 -58 44 -62z m-414 77 c0 -8 -4 -15
-10 -15 -5 0 -7 7 -4 15 4 8 8 15 10 15 2 0 4 -7 4 -15z m1114 -154 c34 -30
39 -61 14 -88 -13 -14 -28 -21 -38 -18 -8 4 -19 7 -25 8 -20 4 -35 26 -54 83
-12 32 -21 59 -21 60 0 8 109 -32 124 -45z m431 -81 c-2 -3 3 -19 11 -34 7
-16 14 -35 14 -42 0 -19 -19 -18 -26 1 -4 8 -16 15 -28 15 -36 0 -44 16 -32
61 8 31 7 45 -3 62 -7 12 5 5 27 -17 23 -22 39 -42 37 -46z m-109 33 c7 -10
14 -24 14 -32 0 -8 -9 -2 -20 12 -11 14 -20 28 -20 31 0 12 13 6 26 -11z
m1189 -113 c24 -27 15 -50 -32 -86 -39 -30 -41 -33 -20 -37 19 -4 18 -4 -5 -6
-38 -2 -37 25 3 59 25 20 30 31 25 48 -8 25 -41 30 -50 7 -3 -8 -10 -15 -16
-15 -16 0 -24 28 -12 43 15 18 87 9 107 -13z m118 1 c43 -17 57 -39 57 -91 0
-40 -4 -51 -21 -60 -11 -6 -25 -9 -32 -6 -7 2 -4 5 6 5 19 1 22 24 7 85 -10
44 -28 60 -48 44 -17 -15 -12 -99 8 -115 8 -7 11 -12 5 -13 -28 0 -52 38 -55
90 -5 65 16 82 73 61z m-2767 -57 c1 -9 -1 -13 -4 -9 -4 4 -7 10 -7 13 0 4 -4
14 -9 22 -7 12 -6 13 4 3 8 -7 15 -20 16 -29z m2964 -13 c0 -32 6 -55 16 -65
8 -9 11 -16 5 -16 -6 0 -11 -7 -11 -15 0 -8 -7 -15 -16 -15 -8 0 -13 4 -10 9
9 13 -15 28 -56 35 -45 8 -47 19 -11 74 21 33 34 42 55 42 27 0 28 -2 28 -49z
m-1343 13 c-3 -3 -12 -4 -19 -1 -8 3 -5 6 6 6 11 1 17 -2 13 -5z m69 -13 c-3
-5 -15 -7 -26 -4 -28 7 -25 13 6 13 14 0 23 -4 20 -9z m694 -15 c0 -11 -19
-15 -25 -6 -3 5 1 10 9 10 9 0 16 -2 16 -4z m283 -53 c-7 -2 -19 -2 -25 0 -7
3 -2 5 12 5 14 0 19 -2 13 -5z m-20 -140 c-7 -2 -21 -2 -30 0 -10 3 -4 5 12 5
17 0 24 -2 18 -5z m334 -95 c-3 -7 -5 -2 -5 12 0 14 2 19 5 13 2 -7 2 -19 0
-25z"/>
<path d="M814 1876 c-10 -8 -16 -18 -12 -22 4 -4 14 -1 22 6 13 10 19 9 31 -4
18 -17 65 -22 65 -7 0 15 -42 41 -65 41 -12 0 -30 -6 -41 -14z"/>
<path d="M830 1825 c-10 -13 -9 -15 9 -15 12 0 21 6 21 15 0 8 -4 15 -9 15 -5
0 -14 -7 -21 -15z"/>
<path d="M2151 1891 c-12 -8 -13 -20 -2 -83 15 -83 26 -108 46 -108 24 0 27
19 14 92 -14 77 -35 114 -58 99z"/>
<path d="M2674 1385 c-11 -28 11 -70 39 -73 24 -3 27 0 27 27 0 16 -3 36 -6
45 -8 20 -53 21 -60 1z"/>
<path d="M1625 457 c-8 -19 -2 -31 13 -26 5 2 6 13 2 24 -7 19 -8 19 -15 2z"/>
<path d="M3000 315 c-7 -8 -16 -12 -21 -9 -5 3 -6 -3 -2 -12 5 -13 3 -15 -8
-9 -11 7 -12 6 -2 -6 6 -8 23 -15 37 -17 23 -2 26 2 26 33 0 37 -10 44 -30 20z"/>
<path d="M1242 2118 c3 -7 13 -36 22 -65 20 -60 38 -80 55 -60 8 11 7 28 -7
73 -16 52 -21 59 -46 62 -21 3 -27 0 -24 -10z"/>
<path d="M1145 2050 c-4 -6 -11 -8 -16 -5 -5 4 -9 2 -9 -3 0 -6 6 -12 14 -15
7 -3 16 -15 19 -26 3 -14 1 -19 -6 -14 -7 3 -4 -3 6 -14 27 -31 59 -23 62 15
2 18 -1 29 -6 26 -8 -4 -13 14 -11 36 1 10 -47 10 -53 0z"/>
<path d="M2600 1965 c-16 -19 0 -19 26 0 16 12 16 14 3 15 -9 0 -22 -7 -29
-15z"/>
<path d="M2869 1842 c5 -34 6 -35 9 -8 2 16 0 32 -5 37 -5 5 -7 -7 -4 -29z"/>
<path d="M2267 1324 c-4 -4 -3 -12 2 -18 4 -6 11 -22 14 -35 5 -21 3 -23 -24
-19 -24 4 -34 -1 -48 -21 -38 -55 -38 -54 25 -47 33 3 76 7 97 8 30 2 43 9 60
32 11 16 16 26 9 22 -7 -4 -12 -2 -12 3 0 6 -5 11 -11 11 -8 0 -7 -6 2 -17 13
-16 12 -17 -3 -5 -10 8 -20 23 -23 33 -5 15 -12 18 -27 13 -14 -4 -18 -2 -14
5 4 6 2 9 -7 5 -8 -3 -18 4 -23 16 -5 12 -13 18 -17 14z"/>
<path d="M2107 1063 c-4 -3 -7 -11 -7 -17 0 -6 5 -5 12 2 6 6 9 14 7 17 -3 3
-9 2 -12 -2z"/>
<path d="M2402 1054 c-12 -21 -3 -64 15 -71 23 -9 36 12 28 45 -7 35 -30 48
-43 26z"/>
<path d="M2727 1058 c-6 -18 11 -48 28 -48 19 0 27 16 20 40 -7 22 -41 27 -48
8z"/>
<path d="M2065 840 c-3 -6 1 -7 9 -4 18 7 21 14 7 14 -6 0 -13 -4 -16 -10z"/>
<path d="M2290 790 c8 -5 20 -10 25 -10 6 0 3 5 -5 10 -8 5 -19 10 -25 10 -5
0 -3 -5 5 -10z"/>
<path d="M2416 787 c3 -10 9 -15 12 -12 3 3 0 11 -7 18 -10 9 -11 8 -5 -6z"/>
<path d="M2723 750 l-42 -46 45 -57 c38 -48 42 -57 26 -57 -11 0 -36 20 -57
45 -39 48 -55 50 -55 7 0 -24 1 -24 13 -8 12 17 15 15 45 -18 48 -55 99 -48
58 8 -62 83 -61 80 -20 126 20 22 35 42 33 43 -2 2 -23 -18 -46 -43z"/>
<path d="M1996 777 c3 -10 9 -15 12 -12 3 3 0 11 -7 18 -10 9 -11 8 -5 -6z"/>
<path d="M2169 773 c-13 -16 -12 -17 4 -4 16 13 21 21 13 21 -2 0 -10 -8 -17
-17z"/>
<path d="M2941 773 c7 -12 15 -20 18 -17 3 2 -3 12 -13 22 -17 16 -18 16 -5
-5z"/>
<path d="M1891 756 c-14 -17 2 -32 44 -41 l30 -6 -33 15 c-18 9 -31 20 -27 26
9 14 48 13 63 -2 8 -8 12 -8 12 -1 0 24 -70 32 -89 9z"/>
<path d="M2045 760 c3 -5 8 -10 11 -10 2 0 4 5 4 10 0 6 -5 10 -11 10 -5 0 -7
-4 -4 -10z"/>
<path d="M2090 706 c0 -68 6 -96 21 -96 6 0 6 7 0 18 -11 21 -4 111 11 129 8
10 5 13 -11 13 -19 0 -21 -5 -21 -64z"/>
<path d="M2206 754 c-23 -23 -21 -96 4 -125 l20 -24 -15 30 c-16 32 -20 77 -7
89 4 4 7 13 7 19 0 20 45 20 67 0 21 -18 21 -18 9 5 -14 26 -61 30 -85 6z"/>
<path d="M2432 758 c-7 -7 -12 -42 -12 -89 0 -43 -5 -80 -10 -82 -6 -3 -5 -4
2 -3 9 2 15 28 18 77 3 41 9 80 13 87 12 18 44 15 56 -5 6 -10 11 -13 11 -7 0
17 -22 34 -45 34 -12 0 -26 -5 -33 -12z"/>
<path d="M2680 755 c-7 -9 -19 -14 -26 -11 -6 2 -14 -4 -17 -15 -7 -27 5 -24
38 11 16 17 26 30 23 30 -3 0 -11 -7 -18 -15z"/>
<path d="M2830 760 c-13 -8 -13 -11 0 -24 8 -8 29 -17 45 -20 l30 -6 -27 11
c-16 6 -28 17 -28 25 0 17 41 19 60 2 12 -11 12 -10 1 5 -15 18 -57 22 -81 7z"/>
<path d="M2336 719 c8 -50 -12 -106 -44 -124 -15 -8 -20 -14 -12 -14 51 -1 92
108 60 159 -6 10 -8 4 -4 -21z"/>
<path d="M2553 670 c0 -41 2 -58 4 -37 2 20 2 54 0 75 -2 20 -4 3 -4 -38z"/>
<path d="M1850 716 c0 -2 8 -10 18 -17 15 -13 16 -12 3 4 -13 16 -21 21 -21
13z"/>
<path d="M2790 716 c0 -2 8 -10 18 -17 15 -13 16 -12 3 4 -13 16 -21 21 -21
13z"/>
<path d="M1971 707 c2 -1 13 -9 24 -17 19 -14 19 -14 6 3 -7 9 -18 17 -24 17
-6 0 -8 -1 -6 -3z"/>
<path d="M2941 683 c7 -12 15 -20 18 -17 3 2 -3 12 -13 22 -17 16 -18 16 -5
-5z"/>
<path d="M1890 686 c0 -3 18 -10 40 -16 41 -11 49 -26 28 -50 -11 -12 -10 -12
5 -1 34 26 17 50 -45 65 -16 3 -28 4 -28 2z"/>
<path d="M2850 679 c47 -21 55 -27 54 -43 -1 -9 2 -13 7 -10 15 9 10 33 -8 42
-10 5 -31 12 -48 15 -29 6 -29 6 -5 -4z"/>
<path d="M1864 641 c7 -11 46 -35 46 -28 0 3 -12 12 -26 22 -15 9 -23 12 -20
6z"/>
<path d="M2800 646 c0 -2 8 -10 18 -17 15 -13 16 -12 3 4 -13 16 -21 21 -21
13z"/>
<path d="M2006 623 c-4 -12 -19 -26 -34 -32 -23 -8 -24 -10 -6 -10 25 -1 58
32 52 51 -3 8 -8 5 -12 -9z"/>
<path d="M2950 626 c0 -7 -15 -21 -32 -30 -26 -12 -28 -16 -12 -16 11 0 27 6
36 13 19 15 31 47 18 47 -6 0 -10 -6 -10 -14z"/>
<path d="M2160 620 c0 -13 49 -44 57 -36 3 3 1 6 -5 6 -7 0 -21 9 -32 20 -11
11 -20 16 -20 10z"/>
<path d="M1840 616 c0 -2 8 -10 18 -17 15 -13 16 -12 3 4 -13 16 -21 21 -21
13z"/>
<path d="M2794 603 c11 -13 26 -23 35 -22 14 0 14 1 1 6 -8 3 -24 13 -35 22
-20 16 -20 16 -1 -6z"/>
<path d="M2067 589 c7 -7 15 -10 18 -7 3 3 -2 9 -12 12 -14 6 -15 5 -6 -5z"/>
<path d="M2528 583 c7 -3 16 -2 19 1 4 3 -2 6 -13 5 -11 0 -14 -3 -6 -6z"/>
<path d="M2618 583 c7 -3 16 -2 19 1 4 3 -2 6 -13 5 -11 0 -14 -3 -6 -6z"/>
<path d="M1726 452 c-3 -6 -2 -22 4 -36 12 -32 34 -35 24 -3 -11 37 -21 51
-28 39z"/>
</g>
</svg>
